Coordinates
version=1
nRows=11
nColumns=40
inDegrees=yes

Units are S.I. units (second, meters, Newtons, ...)
If the header above contains a line with 'inDegrees', this indicates whether rotational values are in degrees (yes) or radians (no).

endheader
time	pelvis_tilt	pelvis_list	pelvis_rotation	pelvis_tx	pelvis_ty	pelvis_tz	hip_flexion_r	hip_adduction_r	hip_rotation_r	knee_angle_r	knee_angle_r_beta	ankle_angle_r	subtalar_angle_r	mtp_angle_r	hip_flexion_l	hip_adduction_l	hip_rotation_l	knee_angle_l	knee_angle_l_beta	ankle_angle_l	subtalar_angle_l	mtp_angle_l	lumbar_extension	lumbar_bending	lumbar_rotation	arm_flex_r	arm_add_r	arm_rot_r	elbow_flex_r	pro_sup_r	wrist_flex_r	wrist_dev_r	arm_flex_l	arm_add_l	arm_rot_l	elbow_flex_l	pro_sup_l	wrist_flex_l	wrist_dev_l
      2.38500000	    -11.36472486	      2.54137430	      1.66573110	     -0.36869201	      0.86160013	     -0.80069024	     43.76424261	     -0.74786443	     -9.11084355	     57.40855258	      1.00196826	     13.77408969	      0.00000000	      0.00000000	     27.94233613	    -10.86390278	      5.64439297	     90.79894788	      1.58474060	    -14.04274465	      0.00000000	      0.00000000	     -8.04376850	      2.21188939	     -3.57733384	     89.67657584	    -16.88975258	     39.86397519	     63.02708548	     86.13456095	      0.00000000	      0.00000000	     89.78382573	     -9.70135339	     36.39124121	     58.51171534	     82.15447451	      0.00000000	      0.00000000
      2.39000000	    -11.43166889	      2.43206690	      1.70910954	     -0.36910496	      0.86058136	     -0.80067013	     43.96278772	     -0.67942187	     -9.18137910	     57.60387989	      1.00537737	     13.91624291	      0.00000000	      0.00000000	     28.06555081	    -10.96390817	      5.78845550	     90.96427426	      1.58762609	    -13.99914293	      0.00000000	      0.00000000	     -8.03682882	      2.34621225	     -3.66143149	     89.67886963	    -16.69137478	     39.55937519	     62.78454084	     86.61077009	      0.00000000	      0.00000000	     89.78143074	     -9.58151724	     35.96146507	     58.18924284	     84.10051725	      0.00000000	      0.00000000
      2.39500000	    -11.50564459	      2.47707982	      1.76178946	     -0.36945078	      0.85951656	     -0.80074068	     44.20258266	     -0.78689446	     -9.20446525	     57.89711120	      1.01049522	     14.03458309	      0.00000000	      0.00000000	     28.16931272	    -10.89543773	      5.83615129	     91.07696665	      1.58959294	    -14.03277698	      0.00000000	      0.00000000	     -8.03923876	      2.30472403	     -3.72641165	     89.68193768	    -16.71202632	     39.49460196	     62.77898537	     86.70927082	      0.00000000	      0.00000000	     89.78574073	     -9.53065053	     35.88456670	     58.21459251	     83.36169386	      0.00000000	      0.00000000
      2.40000000	    -11.52877104	      2.50816878	      1.79080168	     -0.36973854	      0.85852596	     -0.80072376	     44.38112421	     -0.84146432	     -9.16942605	     58.17090910	      1.01527389	     14.17017437	      0.00000000	      0.00000000	     28.20744551	    -10.83506649	      5.91349736	     91.18706526	      1.59151452	    -14.11165966	      0.00000000	      0.00000000	     -8.08630989	      2.25464350	     -3.72058993	     89.68644051	    -16.82982342	     39.48834398	     62.82176446	     86.73118377	      0.00000000	      0.00000000	     89.78827593	     -9.47615709	     35.93685750	     58.27174551	     83.16718331	      0.00000000	      0.00000000
      2.40500000	    -11.72165453	      2.50006479	      1.85304606	     -0.37020034	      0.85733350	     -0.80079520	     44.73393922	     -0.89702571	     -9.21594975	     58.41741172	      1.01957617	     14.29356822	      0.00000000	      0.00000000	     28.47327966	    -10.82222111	      6.00002762	     91.32901966	      1.59399210	    -14.16979567	      0.00000000	      0.00000000	     -7.96609807	      2.26287186	     -3.77263407	     89.69286229	    -16.93287261	     39.54128797	     62.95089248	     86.56416863	      0.00000000	      0.00000000	     89.78937084	     -9.44709063	     35.94147489	     58.36112049	     82.72683870	      0.00000000	      0.00000000
      2.41000000	    -11.75546017	      2.44597096	      1.92252068	     -0.37048913	      0.85647635	     -0.80077089	     44.85532965	     -0.88052749	     -9.24379383	     58.55220815	      1.02192882	     14.42387971	      0.00000000	      0.00000000	     28.52237529	    -10.81688814	      6.18022063	     91.38937766	      1.59504554	    -14.21750032	      0.00000000	      0.00000000	     -7.99742561	      2.32893714	     -3.87685919	     89.70318220	    -16.79918645	     39.65332906	     62.74301945	     84.30302030	      0.00000000	      0.00000000	     89.78676471	     -9.34140175	     35.81318367	     58.24507764	     80.56854173	      0.00000000	      0.00000000
      2.41500000	    -11.81967275	      2.44096531	      1.98174919	     -0.37088653	      0.85539182	     -0.80078520	     45.13505853	     -0.99553553	     -9.42216149	     58.95906509	      1.02902981	     14.53064277	      0.00000000	      0.00000000	     28.63220681	    -10.83916349	      6.24039929	     91.51469977	      1.59723282	    -14.29592840	      0.00000000	      0.00000000	     -8.03108396	      2.31294452	     -3.88258551	     89.70613729	    -17.09308840	     39.68125581	     63.06264561	     84.37779034	      0.00000000	      0.00000000	     89.79375757	     -9.40785594	     35.99280030	     58.45304238	     79.83600113	      0.00000000	      0.00000000
      2.42000000	    -11.89916747	      2.44202642	      2.00662286	     -0.37124760	      0.85429838	     -0.80078676	     45.35854476	     -1.02761778	     -9.40387198	     59.18531688	      1.03297865	     14.58606957	      0.00000000	      0.00000000	     28.72134713	    -10.87257006	      6.23776886	     91.63835196	      1.59939096	    -14.18733619	      0.00000000	      0.00000000	     -8.01377918	      2.33028641	     -3.89938514	     89.70742022	    -17.01640230	     39.32987189	     62.93275325	     86.69760886	      0.00000000	      0.00000000	     89.79283967	     -9.24300859	     35.61714827	     58.27573222	     83.86759959	      0.00000000	      0.00000000
      2.42500000	    -11.95976494	      2.43668242	      1.99854818	     -0.37152938	      0.85331841	     -0.80074764	     45.55934176	     -1.04061382	     -9.41711627	     59.42007893	      1.03707602	     14.69973026	      0.00000000	      0.00000000	     28.77310778	    -10.90381789	      6.23562913	     91.72698235	      1.60093785	    -14.18010963	      0.00000000	      0.00000000	     -8.04543837	      2.33793618	     -3.92511435	     89.71310247	    -16.99063325	     39.27051493	     62.96667033	     86.61107294	      0.00000000	      0.00000000	     89.79461111	     -9.23230015	     35.47177561	     58.27811151	     84.08191649	      0.00000000	      0.00000000
      2.43000000	    -12.01593526	      2.42951420	      1.89622837	     -0.37172980	      0.85228421	     -0.80051027	     45.76579338	     -0.99444965	     -9.40670860	     59.66487152	      1.04134846	     14.76126180	      0.00000000	      0.00000000	     28.77005704	    -10.99385778	      6.14903789	     91.78609911	      1.60196964	    -14.23808959	      0.00000000	      0.00000000	     -8.04910191	      2.32679702	     -3.79369845	     89.71402882	    -17.06683368	     39.25290134	     62.94399079	     86.71817658	      0.00000000	      0.00000000	     89.79542027	     -9.18057146	     35.48821641	     58.29452168	     83.71271651	      0.00000000	      0.00000000
      2.43500000	    -12.07592772	      2.34747945	      2.01250193	     -0.37217379	      0.85133786	     -0.80063690	     45.93411686	     -1.02991351	     -9.54356400	     59.84468711	      1.04448683	     14.88332983	      0.00000000	      0.00000000	     28.88026296	    -11.02110154	      6.33348144	     91.88030550	      1.60361385	    -14.21844882	      0.00000000	      0.00000000	     -8.05251442	      2.43256941	     -3.89539496	     89.72607092	    -17.06158884	     39.38716212	     62.84667661	     84.86731727	      0.00000000	      0.00000000	     89.79686204	     -9.09115366	     35.44621003	     58.24514738	     81.63583628	      0.00000000	      0.00000000
